<svg xmlns="http://www.w3.org/2000/svg" viewBox="0 0 100 100">
  <rect width="100" height="100" rx="20" fill="#1e3a8a"/>
  <rect x="20" y="25" width="38" height="50" rx="4" fill="white"/>
  <rect x="22" y="27" width="34" height="46" rx="3" fill="#3b82f6"/>
  <rect x="26" y="35" width="22" height="3" rx="1.5" fill="white"/>
  <rect x="26" y="42" width="18" height="3" rx="1.5" fill="white"/>
  <rect x="26" y="49" width="20" height="3" rx="1.5" fill="white"/>
  <rect x="26" y="56" width="14" height="3" rx="1.5" fill="white"/>
  <rect x="42" y="28" width="38" height="48" rx="4" fill="white"/>
  <rect x="44" y="30" width="34" height="44" rx="3" fill="#6d28d9"/>
  <rect x="48" y="38" width="22" height="3" rx="1.5" fill="white"/>
  <rect x="48" y="45" width="18" height="3" rx="1.5" fill="white"/>
  <rect x="48" y="52" width="20" height="3" rx="1.5" fill="white"/>
  <rect x="48" y="59" width="14" height="3" rx="1.5" fill="white"/>
  <circle cx="75" cy="72" r="14" fill="#059669"/>
  <text x="75" y="77" text-anchor="middle" font-size="14" fill="white" font-weight="bold">✓</text>
</svg>
